<svg width="168" height="168" viewBox="0 0 168 168" fill="none" xmlns="http://www.w3.org/2000/svg">
<rect width="168" height="168" fill="white"/>
<path d="M78.8431 135.754V131.256C78.8431 130.513 79.4454 129.919 80.1983 129.919H95.9332C95.9332 129.919 96.1214 129.844 96.1214 129.733V128.841C96.1214 128.172 95.5944 127.614 94.9167 127.614H73.046C72.3684 127.614 71.8416 128.172 71.8416 128.841V138.801C71.8416 139.47 72.3684 140.028 73.046 140.028H94.9167C95.5944 140.028 96.1214 139.47 96.1214 138.801V132.409C96.1214 132.409 96.046 132.223 95.9332 132.223H89.1574H84.979C84.8661 132.223 84.7907 132.297 84.7907 132.409V134.416C84.7907 134.416 84.8661 134.601 84.979 134.601H88.1409C88.7057 134.601 89.1574 135.048 89.1574 135.605V136.125C89.1574 136.683 88.7057 137.129 88.1409 137.129H80.1983C79.4454 137.129 78.8431 136.534 78.8431 135.791V135.754Z" fill="black"/>
<path d="M63.1073 127.763L59.3808 136.535C59.042 137.315 57.9879 137.315 57.6491 136.535L53.9224 127.763C53.9224 127.763 53.7343 127.54 53.6212 127.54H46.5068C46.5068 127.54 46.2809 127.689 46.3186 127.838L51.1369 139.136C51.3626 139.62 51.852 139.954 52.3791 139.954H64.726C65.2531 139.954 65.7424 139.62 65.9684 139.136L70.7867 127.838C70.7867 127.838 70.749 127.54 70.5984 127.54H63.4838C63.4838 127.54 63.2204 127.615 63.1827 127.763H63.1073Z" fill="black"/>
<path d="M114.038 127.763L110.311 136.535C109.972 137.315 108.918 137.315 108.58 136.535L104.853 127.763C104.853 127.763 104.665 127.54 104.552 127.54H97.4372C97.4372 127.54 97.2114 127.689 97.2491 127.838L102.067 139.136C102.293 139.62 102.783 139.954 103.31 139.954H115.657C116.184 139.954 116.673 139.62 116.899 139.136L121.717 127.838C121.717 127.838 121.68 127.54 121.529 127.54H114.414C114.414 127.54 114.151 127.615 114.113 127.763H114.038Z" fill="black"/>
<path d="M84 27.265C81.892 25.704 67.2864 15 67.2864 15L15 104.497L34.1604 112.414C34.1604 112.414 33.7839 115.499 33.5582 117.617C31.4124 117.617 25.5401 117.58 25.5401 117.58V151.625H142.46L142.385 117.617H134.404L133.877 112.525L153 104.572L100.638 15C100.638 15 86.108 25.704 84 27.265ZM85.2047 33.2488C85.2047 33.2488 96.0458 25.258 98.9443 23.1395C101.128 26.8562 142.799 98.1419 144.944 101.859C141.632 103.271 127.854 109.143 127.854 109.143L129.36 123.155H136.813V146.013H31.1489V123.155H38.6399L40.108 109.18C40.108 109.18 26.293 103.271 22.9804 101.859C25.126 98.1419 66.8347 26.8562 69.018 23.1395C71.9165 25.2952 84 34.1408 84 34.1408L85.2422 33.2116L85.2047 33.2488Z" fill="black"/>
<path d="M70.3023 29.3457L79.8637 36.3703V81.788L40.0371 104.497L29.083 99.851L70.3023 29.3457Z" fill="black"/>
<path d="M84.0035 88.8124L44.1769 111.558L42.7842 123.229H125.223L123.83 111.558L84.0035 88.8124Z" fill="black"/>
<path d="M97.6642 29.3457L88.1028 36.3703V81.788L127.929 104.497L138.883 99.851L97.6642 29.3457Z" fill="black"/>
</svg>
