<svg width="78" height="79" viewBox="0 0 78 79" fill="none" xmlns="http://www.w3.org/2000/svg"><path d="M36.0852 69.1271V66.5526C36.0852 66.1271 36.4256 65.7867 36.8512 65.7867H45.7448C45.7448 65.7867 45.8512 65.7441 45.8512 65.6803V65.1697C45.8512 64.7867 45.5533 64.4675 45.1703 64.4675H32.8086C32.4256 64.4675 32.1278 64.7867 32.1278 65.1697V70.8718C32.1278 71.2548 32.4256 71.5739 32.8086 71.5739H45.1703C45.5533 71.5739 45.8512 71.2548 45.8512 70.8718V67.2122C45.8512 67.2122 45.8086 67.1058 45.7448 67.1058H41.915H39.5533C39.4895 67.1058 39.4469 67.1484 39.4469 67.2122V68.3611C39.4469 68.3611 39.4895 68.4675 39.5533 68.4675H41.3405C41.6597 68.4675 41.915 68.7229 41.915 69.042V69.3399C41.915 69.659 41.6597 69.9143 41.3405 69.9143H36.8512C36.4256 69.9143 36.0852 69.5739 36.0852 69.1484V69.1271Z" fill="black"></path><path d="M27.1911 64.553L25.0848 69.5742C24.8933 70.021 24.2975 70.021 24.106 69.5742L21.9996 64.553C21.9996 64.553 21.8933 64.4253 21.8294 64.4253H17.8082C17.8082 64.4253 17.6805 64.5104 17.7018 64.5955L20.4252 71.0636C20.5528 71.3402 20.8294 71.5317 21.1273 71.5317H28.106C28.4039 71.5317 28.6805 71.3402 28.8082 71.0636L31.5316 64.5955C31.5316 64.5955 31.5103 64.4253 31.4252 64.4253H27.4039C27.4039 64.4253 27.255 64.4678 27.2337 64.553H27.1911Z" fill="black"></path><path d="M55.9779 64.553L53.8715 69.5742C53.68 70.021 53.0843 70.021 52.8928 69.5742L50.7864 64.553C50.7864 64.553 50.68 64.4253 50.6162 64.4253H46.5949C46.5949 64.4253 46.4673 64.5104 46.4886 64.5955L49.212 71.0636C49.3396 71.3402 49.6162 71.5317 49.9141 71.5317H56.8928C57.1907 71.5317 57.4673 71.3402 57.5949 71.0636L60.3183 64.5955C60.3183 64.5955 60.2971 64.4253 60.212 64.4253H56.1907C56.1907 64.4253 56.0417 64.4678 56.0205 64.553H55.9779Z" fill="black"></path><path d="M39 7.02128C37.8085 6.12766 29.5532 0 29.5532 0L0 51.234L10.8298 55.766C10.8298 55.766 10.617 57.5319 10.4894 58.7447C9.2766 58.7447 5.95745 58.7234 5.95745 58.7234V78.2128H72.0426L72 58.7447H67.4894L67.1915 55.8298L78 51.2766L48.4043 0C48.4043 0 40.1915 6.12766 39 7.02128ZM39.6809 10.4468C39.6809 10.4468 45.8085 5.87234 47.4468 4.65957C48.6808 6.78723 72.234 47.5957 73.4468 49.7234C71.5745 50.5319 63.7872 53.8936 63.7872 53.8936L64.6383 61.9149H68.8511V75H9.12766V61.9149H13.3617L14.1915 53.9149C14.1915 53.9149 6.38298 50.5319 4.51064 49.7234C5.7234 47.5957 29.2979 6.78723 30.5319 4.65957C32.1702 5.89362 39 10.9574 39 10.9574L39.7021 10.4255L39.6809 10.4468Z" fill="black"></path><path d="M31.2578 8.2124L36.6621 12.2337V38.2337L14.1514 51.2337L7.95996 48.5741L31.2578 8.2124Z" fill="black"></path><path d="M39.002 42.2549L16.4913 55.2762L15.7041 61.957H62.2999L61.5126 55.2762L39.002 42.2549Z" fill="black"></path><path d="M46.7233 8.2124L41.319 12.2337V38.2337L63.8296 51.2337L70.0211 48.5741L46.7233 8.2124Z" fill="black"></path></svg>