<svg width="43" height="62" viewBox="0 0 43 62" fill="none" xmlns="http://www.w3.org/2000/svg">
<g clip-path="url(#clip0_2225_2)">
<path opacity="0.2" d="M35 58.4C35 60.4 28.8 62 21.2 62C13.6 62 7.40002 60.4 7.40002 58.4C7.40002 56.4 13.6 54.8 21.2 54.8C28.8 54.7 35 56.4 35 58.4Z" fill="#05141F"/>
<path d="M21.4 0C9.6 0 0 9.6 0 21.4C0 34 21.4 58.5 21.4 58.5C21.4 58.5 42.8 35 42.8 21.4C42.8 9.6 33.2 0 21.4 0ZM21.4 33.7C14.1 33.7 8.2 27.8 8.2 20.5C8.2 13.2 14.1 7.3 21.4 7.3C28.7 7.3 34.6 13.2 34.6 20.5C34.6 27.8 28.7 33.7 21.4 33.7Z" fill="#010101"/>
<path d="M21.7 38.4C30.9232 38.4 38.4 30.9232 38.4 21.7C38.4 12.4768 30.9232 5 21.7 5C12.4768 5 5 12.4768 5 21.7C5 30.9232 12.4768 38.4 21.7 38.4Z" fill="white"/>
<g clip-path="url(#clip1_2225_2)">
<path d="M20.5658 29.7507V28.9034C20.5658 28.7633 20.6749 28.6513 20.8113 28.6513H23.6618C23.6618 28.6513 23.6959 28.6373 23.6959 28.6163V28.4483C23.6959 28.3222 23.6004 28.2171 23.4777 28.2171H19.5156C19.3928 28.2171 19.2974 28.3222 19.2974 28.4483V30.3249C19.2974 30.4509 19.3928 30.556 19.5156 30.556H23.4777C23.6004 30.556 23.6959 30.4509 23.6959 30.3249V29.1205C23.6959 29.1205 23.6822 29.0854 23.6618 29.0854H22.4343H21.6773C21.6569 29.0854 21.6432 29.0995 21.6432 29.1205V29.4986C21.6432 29.4986 21.6569 29.5336 21.6773 29.5336H22.2502C22.3525 29.5336 22.4343 29.6177 22.4343 29.7227V29.8207C22.4343 29.9257 22.3525 30.0098 22.2502 30.0098H20.8113C20.6749 30.0098 20.5658 29.8977 20.5658 29.7577V29.7507Z" fill="black"/>
<path d="M17.7151 28.2453L17.04 29.8978C16.9786 30.0449 16.7876 30.0449 16.7262 29.8978L16.0511 28.2453C16.0511 28.2453 16.017 28.2033 15.9966 28.2033H14.7077C14.7077 28.2033 14.6668 28.2313 14.6736 28.2593L15.5465 30.388C15.5874 30.4791 15.6761 30.5421 15.7715 30.5421H18.0083C18.1038 30.5421 18.1924 30.4791 18.2334 30.388L19.1062 28.2593C19.1062 28.2593 19.0994 28.2033 19.0721 28.2033H17.7833C17.7833 28.2033 17.7355 28.2172 17.7287 28.2453H17.7151Z" fill="black"/>
<path d="M26.9416 28.2453L26.2665 29.8978C26.2051 30.0449 26.0142 30.0449 25.9528 29.8978L25.2777 28.2453C25.2777 28.2453 25.2436 28.2033 25.2231 28.2033H23.9343C23.9343 28.2033 23.8934 28.2313 23.9002 28.2593L24.7731 30.388C24.814 30.4791 24.9026 30.5421 24.9981 30.5421H27.2349C27.3303 30.5421 27.419 30.4791 27.4599 30.388L28.3328 28.2593C28.3328 28.2593 28.326 28.2033 28.2987 28.2033H27.0098C27.0098 28.2033 26.9621 28.2172 26.9553 28.2453H26.9416Z" fill="black"/>
<path d="M21.5 9.3108C21.1181 9.0167 18.4722 7 18.4722 7L9 23.8618L12.4711 25.3534C12.4711 25.3534 12.4029 25.9346 12.362 26.3337C11.9733 26.3337 10.9094 26.3267 10.9094 26.3267V32.7409H32.0906L32.0769 26.3337H30.6312L30.5357 25.3744L34 23.8758L24.5142 7C24.5142 7 21.8819 9.0167 21.5 9.3108ZM21.7182 10.4382C21.7182 10.4382 23.6822 8.93267 24.2073 8.53353C24.6028 9.23377 32.1519 22.6644 32.5406 23.3647C31.9405 23.6308 29.4446 24.7371 29.4446 24.7371L29.7174 27.3771H31.0677V31.6835H11.9255V27.3771H13.2826L13.5486 24.7441C13.5486 24.7441 11.0458 23.6308 10.4457 23.3647C10.8344 22.6644 18.3904 9.23377 18.7859 8.53353C19.311 8.93967 21.5 10.6062 21.5 10.6062L21.725 10.4312L21.7182 10.4382Z" fill="black"/>
<path d="M19.0185 9.70282L20.7507 11.0263V19.5832L13.5357 23.8617L11.5513 22.9864L19.0185 9.70282Z" fill="black"/>
<path d="M21.5006 20.9067L14.2856 25.1922L14.0333 27.3909H28.9679L28.7155 25.1922L21.5006 20.9067Z" fill="black"/>
<path d="M23.9754 9.70282L22.2433 11.0263V19.5832L29.4582 23.8617L31.4427 22.9864L23.9754 9.70282Z" fill="black"/>
</g>
</g>
<defs>
<clipPath id="clip0_2225_2">
<rect width="42.8" height="62" fill="white"/>
</clipPath>
<clipPath id="clip1_2225_2">
<rect width="25" height="26" fill="white" transform="translate(9 7)"/>
</clipPath>
</defs>
</svg>
